<svg width="141" height="38" viewBox="0 0 141 38" fill="none" xmlns="http://www.w3.org/2000/svg">
<path d="M41.3335 19C41.3335 35.7833 41.3668 38 41.5835 38C41.8001 38 41.8335 35.7833 41.8335 19C41.8335 2.21666 41.8001 -1.98185e-06 41.5835 -1.98185e-06C41.3668 -1.98185e-06 41.3335 2.21666 41.3335 19Z" fill="white"/>
<path d="M0.966797 7.93336C-0.0332031 8.4667 0.000130208 8.1167 0.000130208 20.3334C0.000130208 29.9334 0.0334635 31.5834 0.25013 32C0.80013 33.0667 -0.116536 33 14.9668 33H28.7001L29.2668 32.4334L29.8335 31.8667V20.3334V8.80003L29.2668 8.23336L28.7001 7.6667H15.0668C3.3168 7.68336 1.35013 7.7167 0.966797 7.93336ZM5.63346 10.5C6.38346 11.2 6.20013 12.2667 5.25013 12.7C4.4668 13.05 3.50013 12.3 3.50013 11.3167C3.50013 10.8167 4.23346 10.1667 4.80013 10.1667C5.05013 10.1667 5.43346 10.3167 5.63346 10.5ZM9.4168 10.4334C10.6335 11.2334 9.55013 13.2334 8.20013 12.6834C7.30013 12.3167 7.08346 11.2334 7.75013 10.5834C8.2168 10.1 8.83346 10.05 9.4168 10.4334ZM13.2835 10.4167C14.4668 11.2334 13.3668 13.2334 12.0335 12.6834C11.1335 12.3167 10.9168 11.2334 11.5835 10.5834C12.0501 10.1 12.7501 10.05 13.2835 10.4167ZM26.0001 22.25V29.1667H14.9168H3.83346V22.25V15.3334H14.9168H26.0001V22.25Z" fill="orange"/>
<path d="M14.4668 16.5166C14.3001 16.6 14.1335 16.9333 14.0835 17.2333C14.0001 17.6333 13.8335 17.85 13.4335 18.05C12.9168 18.2833 12.8501 18.2833 12.3501 17.9666C11.7168 17.5666 11.2001 17.7 10.7335 18.4C10.4835 18.8 10.4835 18.8666 10.8001 19.4166C11.1335 19.95 11.1335 20.0333 10.9001 20.5833C10.7001 21.05 10.5668 21.1666 10.1835 21.1666C9.53346 21.1666 9.30012 21.5 9.36679 22.35C9.41679 23.0666 9.58346 23.25 10.3335 23.4C10.6168 23.45 10.8168 23.6666 10.9501 24C11.1168 24.45 11.1001 24.6 10.8168 25.05C10.4168 25.7166 10.4168 25.7 10.9335 26.3166C11.4168 26.9 11.8168 26.9666 12.4168 26.5666C12.7501 26.35 12.9001 26.3333 13.3835 26.5166C13.8335 26.6666 13.9835 26.85 14.1001 27.3166C14.3835 28.4833 15.9335 28.4666 16.2168 27.3C16.4168 26.4833 17.1335 26.15 17.8335 26.55C18.4501 26.9166 18.7001 26.9 19.2335 26.4833C19.7335 26.1 19.8001 25.5166 19.4168 24.9333C19.0501 24.3833 19.3668 23.5333 19.9668 23.4C20.7668 23.2333 20.9168 23.0833 20.9668 22.3166C21.0335 21.5166 20.7501 21.1666 20.0501 21.1666C19.7668 21.1666 19.6001 21 19.4168 20.5666C19.1835 20 19.1835 19.9166 19.4835 19.4333C19.8501 18.8166 19.7335 18.3666 19.1001 17.95C18.5668 17.6 18.3501 17.6 17.8501 17.9833C17.4668 18.2833 17.4001 18.2833 16.8835 18.0333C16.4835 17.8333 16.3168 17.6333 16.2335 17.2166C16.0835 16.4166 15.2168 16.0666 14.4668 16.5166ZM16.0668 20.5C16.6168 20.7 17.1668 21.6 17.1668 22.25C17.1668 23.4333 15.9168 24.4666 14.7501 24.2333C14.4501 24.1833 13.9835 23.9166 13.7168 23.6333C13.3168 23.2166 13.2501 23.0166 13.2501 22.2333C13.2501 21.4 13.3001 21.25 13.8001 20.8166C14.3835 20.3 15.2335 20.1833 16.0668 20.5Z" fill="#FF6600"/>
<path d="M101.183 8.88333L100.283 9.08333L99.5001 12.75C97.5168 22.0167 96.0001 29.2667 96.0001 29.3667C96.0001 29.45 96.4835 29.5 97.0501 29.5H98.1168L98.7335 26.45C99.5001 22.7167 99.8168 22.0167 101.583 20.2333C104.15 17.6333 106.333 17.25 106.333 19.4C106.333 19.95 105.083 26.4167 104.433 29.2C104.367 29.4667 104.5 29.5 105.433 29.5C106.15 29.5 106.533 29.4333 106.583 29.2833C106.833 28.45 108.55 19.8833 108.617 19.0667C108.717 17.85 108.4 17.0167 107.6 16.45C107.183 16.15 106.85 16.0833 105.917 16.0833C104.367 16.0833 102.95 16.7667 101.433 18.2333C100.833 18.8167 100.333 19.2167 100.333 19.1333C100.333 19.05 100.817 16.7 101.417 13.9C102.017 11.1 102.5 8.78333 102.5 8.73333C102.5 8.63333 102.217 8.66667 101.183 8.88333Z" fill="white"/>
<path d="M132.5 8.88333C131.633 9.11667 131.883 8.36667 130.433 15.25C129.933 17.6333 129.067 21.7167 128.517 24.3333C127.95 26.95 127.5 29.1833 127.5 29.2833C127.5 29.4333 127.817 29.5 128.55 29.5H129.6L130.233 26.3667C131.033 22.4667 131.217 22.0667 133.183 20.05C134.317 18.9167 135.85 18 136.65 18C137.367 18 137.833 18.5167 137.833 19.3167C137.833 19.8 136.45 26.9333 135.917 29.1167C135.833 29.4833 135.867 29.5 136.917 29.5C137.9 29.5 138 29.4667 138.083 29.1167C138.533 27.2667 140.033 19.7167 140.1 19C140.167 18.25 140.117 17.95 139.8 17.3333C139.267 16.3 138.583 15.9667 137.167 16.05C135.733 16.1333 134.45 16.7833 132.983 18.1333C132.35 18.7167 131.833 19.1167 131.833 19C131.833 18.9 131.95 18.3167 132.083 17.7C132.217 17.0833 132.667 14.9333 133.083 12.9167C133.5 10.9 133.883 9.11667 133.933 8.95C134.033 8.61667 133.65 8.58333 132.5 8.88333Z" fill="white"/>
<path d="M62.0668 9.89999C60.0501 10.3667 58.3501 11.6333 57.6501 13.2167C57.2001 14.2167 57.1335 15.8667 57.4835 16.8833C57.8168 17.8833 58.8501 19.0167 60.2668 19.9833C62.6001 21.5667 63.3335 22.2 63.7835 22.95C64.1335 23.5667 64.2001 23.8333 64.1335 24.65C64.0501 25.9333 63.4668 26.7167 62.1835 27.3167C61.3835 27.6833 61.0335 27.75 59.6668 27.75C58.1501 27.75 58.0168 27.7167 56.7501 27.0833C56.0168 26.7167 55.3668 26.4 55.3001 26.3667C55.1501 26.3 54.6335 28.15 54.7501 28.35C54.8168 28.4333 55.2168 28.6833 55.6501 28.9C58.9168 30.5667 63.0668 30.0667 65.2001 27.7667C66.2001 26.7 66.4168 26.0667 66.4168 24.25C66.4168 21.7833 65.9335 21.0833 62.8335 19C60.7835 17.6333 59.9001 16.7833 59.7501 16.0333C59.6835 15.7833 59.6168 15.45 59.5835 15.2833C59.5001 14.8667 59.8168 13.8167 60.2001 13.2833C61.1335 11.9833 63.9335 11.4667 66.2501 12.1667C67.9501 12.6833 67.8668 12.7 68.1501 11.6333C68.2835 11.1 68.3501 10.6333 68.3001 10.5667C68.2501 10.5167 67.6501 10.3333 66.9668 10.15C65.3001 9.71666 63.3168 9.61666 62.0668 9.89999Z" fill="orange"/>
<path d="M114.833 10.2833C113.733 11.2667 114.133 13 115.433 13C116.333 13 117 12.25 117 11.2667C117 9.9 115.85 9.38333 114.833 10.2833Z" fill="white"/>
<path d="M122.167 13.1667L121.083 13.4333L120.817 14.7333C120.667 15.4333 120.483 16.0667 120.417 16.1333C120.367 16.2 119.883 16.4 119.367 16.5833C118.467 16.9 118.417 16.95 118.367 17.5333L118.317 18.1667H119.15C119.75 18.1667 120 18.2333 120 18.3833C120 18.5167 119.617 20.3667 119.15 22.5167C118.017 27.7333 118.1 28.7167 119.683 29.55C120.583 30.0333 122.317 29.8667 123.683 29.1833C125.183 28.4167 125.25 28.3333 125 27.5667C124.883 27.2 124.733 26.85 124.667 26.7833C124.6 26.7 124.183 26.8833 123.733 27.15C121.8 28.3833 120.667 28.1333 120.667 26.4833C120.667 26.2 121.05 24.25 121.5 22.1333C121.967 20.0167 122.333 18.2667 122.333 18.2333C122.333 18.2 123.217 18.1667 124.317 18.1667H126.3L126.383 17.6833C126.433 17.4167 126.533 17.0167 126.6 16.7667L126.7 16.3333H124.767C122.567 16.3333 122.7 16.4833 123.1 14.6C123.467 12.8333 123.467 12.8333 122.167 13.1667Z" fill="white"/>
<path d="M89.6168 16.1666C88.0668 16.5666 86.4501 17.7666 85.4501 19.2833C84.4501 20.8166 83.9835 22.1333 83.8835 23.7666C83.7168 26.25 84.6335 28.2166 86.4501 29.2833C88.1168 30.25 91.3501 29.8666 93.2168 28.4666C93.5001 28.25 93.5001 28.2166 93.1668 27.45C92.9668 27 92.7501 26.6666 92.7001 26.7C92.6335 26.7333 92.0668 27 91.4501 27.3166C88.5668 28.7666 86.4168 27.6833 86.2001 24.6666C86.0168 22.0833 87.4501 19.1833 89.3668 18.2833C90.3501 17.8166 91.7501 17.9 92.9835 18.5166C93.5501 18.8 94.0335 19.0166 94.0668 18.9833C94.3835 18.55 94.8335 17.65 94.8335 17.45C94.8335 17.3 94.4001 16.9833 93.7668 16.6666C92.6001 16.0833 90.8001 15.8666 89.6168 16.1666Z" fill="white"/>
<path d="M71.4168 16.5333C71.3835 16.65 71.0001 18.4 70.5835 20.4333C69.2001 27.15 69.1668 27.6166 69.9001 28.7166C70.4001 29.4666 71.2168 29.8333 72.4335 29.8333C73.8168 29.8333 75.1168 29.1666 76.4501 27.7833L77.4668 26.7333V27.7833C77.4668 28.3666 77.5501 29.0666 77.6668 29.3333C77.8668 29.8 77.9335 29.8333 78.4001 29.7333C78.6835 29.6833 79.1668 29.5333 79.4501 29.4C79.9501 29.2 79.9835 29.15 79.8335 28.75C79.5668 28.05 79.6335 26.45 80.0001 24.8166C80.7001 21.6666 81.6668 16.9333 81.6668 16.65C81.6668 16.3833 81.5335 16.3333 80.6668 16.3333C80.0001 16.3333 79.6335 16.4 79.6001 16.5333C79.5501 16.65 79.2501 18.0666 78.9168 19.6666C78.2168 23.05 77.7001 24.2 76.1001 25.95C73.8168 28.45 71.6668 28.6833 71.6668 26.4C71.6668 25.95 72.1168 23.5333 72.6335 21.0333C73.1668 18.5333 73.5668 16.45 73.5168 16.4166C73.3335 16.2333 71.4835 16.3333 71.4168 16.5333Z" fill="white"/>
<path d="M113.433 16.6167C113.383 16.7833 112.783 19.65 112.083 23C111.383 26.35 110.783 29.1833 110.75 29.3C110.683 29.4667 110.933 29.5 111.783 29.4667L112.9 29.4167L114.283 22.9167C115.033 19.3333 115.65 16.4 115.667 16.3667C115.667 16.35 115.183 16.3333 114.6 16.3333C113.717 16.3333 113.5 16.3833 113.433 16.6167Z" fill="white"/>
</svg>
